<?xml version="1.0" encoding="UTF-8"?>
<svg version="1.1" xmlns="http://www.w3.org/2000/svg" width="252" height="256">
<path d="M0 0 C83.16 0 166.32 0 252 0 C252 84.48 252 168.96 252 256 C168.84 256 85.68 256 0 256 C0 171.52 0 87.04 0 0 Z " fill="#0D181D" transform="translate(0,0)"/>
<path d="M0 0 C2 1 2 1 2.88671875 3.30078125 C5.3476613 12.55632617 6.34780783 21.22286864 1.6875 29.9375 C-3.54712302 38.27356151 -3.54712302 38.27356151 -7 40 C-7.65149726 41.93672366 -8.22061099 43.90140062 -8.75 45.875 C-11.8557081 56.34960223 -17.03478977 64.654112 -24 73 C-17.51107332 73.22227195 -17.51107332 73.22227195 -11.98828125 70.2578125 C-10.24099451 68.16643032 -10.24099451 68.16643032 -8.765625 66.0078125 C-5.74538999 62.57329747 -2.8595479 61.15750995 1.73242188 60.76855469 C4.95221371 60.70472621 8.15548833 60.73855362 11.375 60.8125 C13.05142578 60.83280273 13.05142578 60.83280273 14.76171875 60.85351562 C17.50831211 60.88872836 20.25390289 60.93797904 23 61 C22.89031627 62.4306081 22.76645238 63.8601331 22.63671875 65.2890625 C22.56928467 66.08521973 22.50185059 66.88137695 22.43237305 67.70166016 C21.69088988 71.6431184 19.9225717 73.27226641 17 76 C11.72168247 79.12390221 7.44965913 80.12586486 1.37890625 80.1328125 C-0.26283569 80.13486694 -0.26283569 80.13486694 -1.93774414 80.13696289 C-3.09266357 80.13301514 -4.24758301 80.12906738 -5.4375 80.125 C-6.61368896 80.12814209 -7.78987793 80.13128418 -9.00170898 80.13452148 C-14.95567942 80.12502815 -20.67205981 79.89897062 -26.5625 79.0625 C-30.97914866 78.6566458 -33.19482715 79.21457386 -36.8125 81.8125 C-43.49010585 87.96324888 -50.04312133 95.76284393 -54 104 C-54 104.99 -54 105.98 -54 107 C-49.38 107.99 -44.76 108.98 -40 110 C-39.34 108.02 -38.68 106.04 -38 104 C-33.98695094 99.29899967 -28.91506981 94.97168994 -23 93 C-20.5589224 92.9154613 -18.14740787 92.88394214 -15.70703125 92.90234375 C-14.64798836 92.90446617 -14.64798836 92.90446617 -13.56755066 92.90663147 C-11.31582374 92.91222236 -9.06419679 92.92477312 -6.8125 92.9375 C-5.28450665 92.94251618 -3.75651173 92.94707888 -2.22851562 92.95117188 C1.51436135 92.9621888 5.25716373 92.97944713 9 93 C10.30933666 97.57214342 9.28335826 100.14443891 7.41796875 104.4609375 C4.17215496 110.27300076 -0.19629795 113.52558935 -6.421875 115.66796875 C-12.79537137 117.45608531 -19.04505682 117.45042633 -25.625 117.375 C-26.85597412 117.36847412 -28.08694824 117.36194824 -29.35522461 117.35522461 C-39.5749826 117.20529987 -49.25910996 116.24696335 -59 113 C-59.18175781 113.72445312 -59.36351563 114.44890625 -59.55078125 115.1953125 C-60.92167755 120.46799057 -62.30679941 125.25483705 -65 130 C-66.65 129.67 -68.3 129.34 -70 129 C-69.47986615 123.27852766 -67.76938024 118.55430225 -65.546875 113.2578125 C-64.13639627 104.85538919 -70.14384583 96.55834507 -74 89.4375 C-85.22956896 68.61939813 -85.22956896 68.61939813 -82.37890625 56.3203125 C-80.1449997 49.7873769 -76.50898438 46.03813904 -71 42 C-68.01907255 44.74454042 -66.1667502 47.21291147 -64.45703125 50.87890625 C-64.02326172 51.79994141 -63.58949219 52.72097656 -63.14257812 53.66992188 C-62.48418945 55.10174805 -62.48418945 55.10174805 -61.8125 56.5625 C-61.36197266 57.52091797 -60.91144531 58.47933594 -60.44726562 59.46679688 C-56.50215523 67.90708552 -53.83012833 76.14664295 -56.7890625 85.4921875 C-58.48347715 88.91982019 -60.54923816 92.05908579 -63 95 C-62.01 96.65 -61.02 98.3 -60 100 C-59.61070313 99.33355469 -59.22140625 98.66710937 -58.8203125 97.98046875 C-52.99486913 88.38325214 -45.95830727 79.83660291 -37 73 C-40.0744579 63.38321225 -44.26818566 54.13418957 -48.921875 45.18359375 C-52.00058531 38.94808991 -52.65297726 33.92768063 -52 27 C-50.35054486 22.31207486 -47.8778493 19.12119578 -44 16 C-41.97143555 16.12548828 -41.97143555 16.12548828 -40 17 C-38.82739258 18.71826172 -38.82739258 18.71826172 -37.89453125 20.9296875 C-37.37922852 22.12271484 -37.37922852 22.12271484 -36.85351562 23.33984375 C-36.33821289 24.59474609 -36.33821289 24.59474609 -35.8125 25.875 C-35.45736328 26.70386719 -35.10222656 27.53273438 -34.73632812 28.38671875 C-32.2345908 34.26366527 -30.05637555 39.46721535 -31 46 C-31.9296875 47.796875 -31.9296875 47.796875 -33.0625 49.5 C-35.23858207 52.88758876 -35.29463835 55.15404192 -34.5625 59.06640625 C-33.7326833 61.91890116 -32.47636824 64.43240307 -31 67 C-24.22743338 64.49164199 -21.1797802 57.81090163 -18.11328125 51.7578125 C-15.16818669 44.46224493 -14.90641571 38.48591627 -15.25 30.75 C-15.48374913 19.6212137 -13.07063212 11.99383213 -5.25 3.8125 C-3.50440328 2.19664358 -2.12850789 1.06425395 0 0 Z " fill="#708A58" transform="translate(155,55)"/>
<path d="M0 0 C2.98092745 2.74454042 4.8332498 5.21291147 6.54296875 8.87890625 C6.97673828 9.79994141 7.41050781 10.72097656 7.85742188 11.66992188 C8.51581055 13.10174805 8.51581055 13.10174805 9.1875 14.5625 C9.63802734 15.52091797 10.08855469 16.47933594 10.55273438 17.46679688 C14.5467339 26.01168041 16.8958366 33.91916452 14.3515625 43.421875 C12.20089908 48.16436357 8.66673452 52.554058 4 55 C2.0612793 54.87231445 2.0612793 54.87231445 0 54 C-1.44799805 51.82275391 -1.44799805 51.82275391 -2.76171875 48.9765625 C-3.24060547 47.955625 -3.71949219 46.9346875 -4.21289062 45.8828125 C-4.69951172 44.80773437 -5.18613281 43.73265625 -5.6875 42.625 C-6.18572266 41.55765625 -6.68394531 40.4903125 -7.19726562 39.390625 C-11.57217034 29.96410032 -14.06579289 22.00754518 -10.5 11.75 C-8.19290586 6.51724301 -4.54861068 3.33417579 0 0 Z " fill="#B1DB51" transform="translate(84,97)"/>
<path d="M0 0 C1.05904289 0.00212242 1.05904289 0.00212242 2.13948059 0.00428772 C4.39120751 0.00987861 6.64283446 0.02242937 8.89453125 0.03515625 C10.4225246 0.04017243 11.95051952 0.04473513 13.47851562 0.04882812 C17.2213926 0.05984505 20.96419498 0.07710338 24.70703125 0.09765625 C26.01636791 4.66979967 24.99038951 7.24209516 23.125 11.55859375 C19.89495683 17.3424176 15.5315239 20.61214239 9.34375 22.7734375 C2.66605398 24.6545393 -3.9691167 24.46153907 -10.85546875 24.34765625 C-12.13744141 24.3425 -13.41941406 24.33734375 -14.74023438 24.33203125 C-24.13836569 24.25225931 -24.13836569 24.25225931 -25.29296875 23.09765625 C-26.27176268 17.64437581 -24.04519717 13.97572754 -21.21484375 9.5078125 C-15.57011337 2.42895346 -8.78945913 -0.06627674 0 0 Z " fill="#B4DB59" transform="translate(139.29296875,147.90234375)"/>
<path d="M0 0 C2.60033877 1.15348774 2.98232032 2.20939638 4.0769043 4.80419922 C4.42043945 5.59955078 4.76397461 6.39490234 5.11791992 7.21435547 C5.46145508 8.05095703 5.80499023 8.88755859 6.15893555 9.74951172 C6.69164062 10.9928125 6.69164062 10.9928125 7.23510742 12.26123047 C12.7401112 25.19328867 12.7401112 25.19328867 10.25268555 31.77685547 C8.07516155 35.78947026 5.32293211 38.80230653 1.97143555 41.87451172 C-1.02856445 40.87451172 -1.02856445 40.87451172 -2.7824707 37.89013672 C-3.39561102 36.63991569 -3.99809024 35.38442253 -4.59106445 34.12451172 C-4.89463867 33.50318359 -5.19821289 32.88185547 -5.51098633 32.24169922 C-9.16144219 24.7021956 -10.82171438 19.28933677 -10.02856445 10.87451172 C-8.52702033 6.60696528 -5.25265138 -0.32493234 0 0 Z " fill="#ABDA51" transform="translate(113.028564453125,71.12548828125)"/>
<path d="M0 0 C1.07314453 0.00322266 2.14628906 0.00644531 3.25195312 0.00976562 C4.37150391 0.01814453 5.49105469 0.02652344 6.64453125 0.03515625 C8.34125977 0.04192383 8.34125977 0.04192383 10.07226562 0.04882812 C12.86724052 0.06062127 15.66210945 0.07707975 18.45703125 0.09765625 C18.34734752 1.52826435 18.22348363 2.95778935 18.09375 4.38671875 C18.02631592 5.18287598 17.95888184 5.9790332 17.8894043 6.79931641 C17.14792113 10.74077465 15.37960295 12.36992266 12.45703125 15.09765625 C7.33912259 18.1266226 3.14464681 19.22956099 -2.74609375 19.1953125 C-3.72578125 19.19208984 -4.70546875 19.18886719 -5.71484375 19.18554688 C-6.730625 19.17716797 -7.74640625 19.16878906 -8.79296875 19.16015625 C-10.33984375 19.15338867 -10.33984375 19.15338867 -11.91796875 19.14648438 C-14.45969448 19.13471713 -17.00130194 19.11827636 -19.54296875 19.09765625 C-19.67448657 13.44588154 -17.9720615 10.51797112 -14.54296875 6.09765625 C-10.0459286 1.5219179 -6.38435113 -0.03377964 0 0 Z " fill="#B1DA5A" transform="translate(159.54296875,115.90234375)"/>
<path d="M0 0 C2 1 2 1 2.88671875 3.30078125 C5.3476613 12.55632617 6.34780783 21.22286864 1.6875 29.9375 C-1.56716558 35.1039319 -4.92969868 39.48979139 -10 43 C-10.99 43 -11.98 43 -13 43 C-16.1551577 33.33732955 -16.8365107 22.83763337 -12.4375 13.5 C-9.39805327 8.15028496 -5.63029712 2.81514856 0 0 Z " fill="#B7E35B" transform="translate(155,55)"/>
<path d="M0 0 C0.66 0 1.32 0 2 0 C2.99 2.31 3.98 4.62 5 7 C5.33 7 5.66 7 6 7 C6.82689516 10.06437619 7.27561328 12.82534336 7 16 C5.596757 18.09128473 4.00879496 19.48371629 2.1015625 21.125 C-1.79770802 24.60390307 -4.81454343 28.87649487 -8 33 C-8.53753906 33.68191406 -9.07507813 34.36382812 -9.62890625 35.06640625 C-14.40831866 41.24345362 -18.79160424 47.80774054 -21.75 55.0625 C-23 58 -23 58 -25 59 C-24.80921875 58.45472656 -24.6184375 57.90945312 -24.421875 57.34765625 C-22.6924867 51.46572513 -23.1800678 48.24470715 -26.0546875 42.84765625 C-27 41 -27 41 -27 39 C-24.5 37.375 -24.5 37.375 -22 36 C-20.68 37.98 -19.36 39.96 -18 42 C-17.61070313 41.33355469 -17.22140625 40.66710937 -16.8203125 39.98046875 C-10.99486913 30.38325214 -3.95830727 21.83660291 5 15 C4.731875 14.195625 4.46375 13.39125 4.1875 12.5625 C2.79166667 8.375 1.39583333 4.1875 0 0 Z " fill="#678C47" transform="translate(113,113)"/>
<path d="M0 0 C0.33 0.99 0.66 1.98 1 3 C2.65 2.34 4.3 1.68 6 1 C5.07286066 6.97489794 3.24469371 12.02851388 0.5625 17.4375 C0.26206787 18.05254395 -0.03836426 18.66758789 -0.34790039 19.30126953 C-1.97292124 22.48063895 -2.96502912 23.97668608 -6 26 C-6.33 25.01 -6.66 24.02 -7 23 C-7.48210937 23.5053125 -7.96421875 24.010625 -8.4609375 24.53125 C-9.09257812 25.1809375 -9.72421875 25.830625 -10.375 26.5 C-11.00148437 27.1496875 -11.62796875 27.799375 -12.2734375 28.46875 C-14 30 -14 30 -16 30 C-14.70987334 27.17517292 -13.32286866 25.1174188 -11.1875 22.875 C-5.44097204 16.31554858 -2.45554043 8.26498972 0 0 Z " fill="#6C8D4E" transform="translate(141,95)"/>
<path d="M0 0 C0.27585937 0.55429688 0.55171875 1.10859375 0.8359375 1.6796875 C1.64541834 3.29321642 2.46379847 4.90229885 3.2890625 6.5078125 C3.95035156 7.80332031 3.95035156 7.80332031 4.625 9.125 C5.07101563 9.99382812 5.51703125 10.86265625 5.9765625 11.7578125 C7 14 7 14 7 16 C7.55429688 15.50628906 8.10859375 15.01257813 8.6796875 14.50390625 C9.40414062 13.86324219 10.12859375 13.22257812 10.875 12.5625 C11.95394531 11.60537109 11.95394531 11.60537109 13.0546875 10.62890625 C15 9 15 9 17 8 C16.52003578 12.99162787 16.11223313 14.85035583 13 19 C16.63 18.67 20.26 18.34 24 18 C23.34 19.32 22.68 20.64 22 22 C12 20 12 20 9.34375 19.40625 C6.63348049 18.93646995 4.64528347 19.31978425 2 20 C1.54427083 17.98177083 1.08854167 15.96354167 0.6328125 13.9453125 C0.09525572 11.79280036 0.09525572 11.79280036 -2 10 C-2.40047444 7.67724823 -2.7397104 5.34260643 -3 3 C-2.01 2.67 -1.02 2.34 0 2 C0 1.34 0 0.68 0 0 Z " fill="#698C4A" transform="translate(118,109)"/>
<path d="M0 0 C1.08333427 3.25000281 0.92291149 5.05324123 -0.25 8.25 C-0.53230469 9.04535156 -0.81460938 9.84070313 -1.10546875 10.66015625 C-1.64580385 12.07352185 -2.20543097 13.48000699 -2.80078125 14.87109375 C-5.51122726 21.33446501 -6.17388111 28.08003944 -7 35 C-7.33 35 -7.66 35 -8 35 C-10.44691499 24.34277523 -9.9192648 14.99481935 -4.60546875 5.390625 C-3.20829438 3.31016098 -1.85437865 1.6706114 0 0 Z " fill="#8BBD46" transform="translate(149,60)"/>
<path d="M0 0 C0.66 0 1.32 0 2 0 C2.99 2.31 3.98 4.62 5 7 C5.33 7 5.66 7 6 7 C6.82689516 10.06437619 7.27561328 12.82534336 7 16 C5.59874521 18.08832166 4.01616483 19.47725557 2.109375 21.11328125 C-1.78631346 24.59775815 -4.79500752 28.88967975 -8 33 C-9.33134894 34.66825225 -10.66413967 36.33535808 -12 38 C-12.99 37.67 -13.98 37.34 -15 37 C-9.09083118 28.50830554 -2.90270205 21.67667538 5 15 C4.70351562 14.11054687 4.40703125 13.22109375 4.1015625 12.3046875 C2.05078125 6.15234375 2.05078125 6.15234375 0 0 Z " fill="#537837" transform="translate(113,113)"/>
<path d="M0 0 C1.60284548 0.36009873 3.2071289 0.71383346 4.8125 1.0625 C6.20844918 1.37448212 7.60432165 1.68680856 9 2 C9.33 3.32 9.66 4.64 10 6 C2.125 5.125 2.125 5.125 1 4 C-2.83611924 3.19935805 -6.17352564 3.13078818 -10 4 C-13.8561673 6.91252848 -16.93520716 10.27704124 -20 14 C-20 9.96357397 -18.53173127 8.91426655 -15.875 5.9375 C-15.10929687 5.05964844 -14.34359375 4.18179688 -13.5546875 3.27734375 C-9.24279204 -0.56644073 -5.48821845 -1.53159585 0 0 Z " fill="#718F56" transform="translate(130,128)"/>
<path d="M0 0 C0.33 0 0.66 0 1 0 C0.48415938 10.4887593 -3.23824561 18.64802803 -10.25390625 26.44140625 C-12.0672335 28.06001379 -13.78331779 29.02504787 -16 30 C-14.70987334 27.17517292 -13.32286866 25.1174188 -11.1875 22.875 C-5.44097204 16.31554858 -2.45554043 8.26498972 0 0 Z " fill="#527C2C" transform="translate(141,95)"/>
<path d="M0 0 C1.33333333 1.33333333 2.66666667 2.66666667 4 4 C3.01 4.99 2.02 5.98 1 7 C8.92 7.33 16.84 7.66 25 8 C25 8.33 25 8.66 25 9 C21.03069011 9.02465881 17.06140966 9.04284023 13.09204102 9.05493164 C11.74079614 9.05997057 10.38955674 9.06680177 9.03833008 9.07543945 C7.09979566 9.08752419 5.161222 9.09269828 3.22265625 9.09765625 C1.47094116 9.10551147 1.47094116 9.10551147 -0.31616211 9.11352539 C-3 9 -3 9 -4 8 C-4.04080783 6.00041636 -4.04254356 3.99954746 -4 2 C-2.68 1.34 -1.36 0.68 0 0 Z " fill="#9CB853" transform="translate(118,163)"/>
<path d="M0 0 C1.43110959 2.82998698 2.8071805 5.67793954 4.125 8.5625 C4.47820312 9.32691406 4.83140625 10.09132813 5.1953125 10.87890625 C6 13 6 13 6 16 C3.0335839 15.6821697 1.98923205 14.9895397 -0.1875 12.875 C-2.30075583 9.52293902 -2.69282238 6.91651468 -3 3 C-2.01 2.67 -1.02 2.34 0 2 C0 1.34 0 0.68 0 0 Z " fill="#739655" transform="translate(118,109)"/>
<path d="M0 0 C4.70054457 0.21366112 9.41428541 0.96451606 14 2 C14 3.65 14 5.3 14 7 C11.87249844 6.77226744 9.74791944 6.51709182 7.625 6.25 C6.44164063 6.11078125 5.25828125 5.9715625 4.0390625 5.828125 C1 5 1 5 -0.4140625 2.921875 C-0.60742188 2.28765625 -0.80078125 1.6534375 -1 1 C-0.67 0.67 -0.34 0.34 0 0 Z " fill="#74935B" transform="translate(100,163)"/>
<path d="M0 0 C4.00824108 0.75731744 7.76695753 1.94817434 11.54296875 3.48046875 C7.9111312 4.72918771 5.10461776 4.18777385 1.35546875 3.60546875 C-3.87604477 3.11703723 -6.44813326 3.50078398 -10.58203125 6.79296875 C-11.88758254 8.00737778 -13.18112944 9.23494555 -14.45703125 10.48046875 C-15.44703125 11.14046875 -16.43703125 11.80046875 -17.45703125 12.48046875 C-13.98259143 4.76721235 -8.79099655 -0.72236096 0 0 Z " fill="#6F855B" transform="translate(128.45703125,130.51953125)"/>
<path d="M0 0 C0.66 0.33 1.32 0.66 2 1 C0.7934375 2.051875 0.7934375 2.051875 -0.4375 3.125 C-3.27942046 6.31349612 -3.63846817 7.84238398 -4 12 C-4.33 12.99 -4.66 13.98 -5 15 C-5.22179785 16.89212737 -5.40614015 18.78884472 -5.5625 20.6875 C-5.64628906 21.68136719 -5.73007813 22.67523438 -5.81640625 23.69921875 C-5.87699219 24.45847656 -5.93757813 25.21773437 -6 26 C-6.33 26 -6.66 26 -7 26 C-7.06058594 25.24074219 -7.12117188 24.48148438 -7.18359375 23.69921875 C-7.26738281 22.70535156 -7.35117188 21.71148437 -7.4375 20.6875 C-7.51871094 19.70136719 -7.59992188 18.71523437 -7.68359375 17.69921875 C-7.91812559 14.90624401 -7.91812559 14.90624401 -9 12 C-6.92790265 7.39218533 -3.76416092 3.34592082 0 0 Z " fill="#91BF41" transform="translate(82,98)"/>
<path d="M0 0 C2.12508244 3.18762365 2.5020163 5.26512223 3 9 C3.99 9.33 4.98 9.66 6 10 C5.57316368 11.27445454 5.13302798 12.54445882 4.6875 13.8125 C4.44386719 14.52019531 4.20023437 15.22789062 3.94921875 15.95703125 C2.93275742 18.14472373 1.79179406 19.40896718 0 21 C0.19078125 20.45472656 0.3815625 19.90945312 0.578125 19.34765625 C2.3075133 13.46572513 1.8199322 10.24470715 -1.0546875 4.84765625 C-2 3 -2 3 -2 1 C-1.34 0.67 -0.68 0.34 0 0 Z " fill="#5A7D3A" transform="translate(88,151)"/>
<path d="M0 0 C0.66 0 1.32 0 2 0 C1.00675577 3.66736332 -0.02176063 7.0516815 -1.5 10.5625 C-3.79256344 16.43937582 -4.25712072 22.77729352 -5 29 C-5.33 29 -5.66 29 -6 29 C-6.41347387 18.41047476 -5.26446448 9.30055391 0 0 Z " fill="#9CCF47" transform="translate(147,66)"/>
<path d="M0 0 C0.33 0.99 0.66 1.98 1 3 C-7.07744875 10.85193622 -7.07744875 10.85193622 -13 11 C-4.5 2.25 -4.5 2.25 0 0 Z " fill="#BECF72" transform="translate(160,159)"/>
<path d="M0 0 C0.80244141 0.00966797 1.60488281 0.01933594 2.43164062 0.02929688 C3.26501953 0.05443359 4.09839844 0.07957031 4.95703125 0.10546875 C6.22450195 0.12577148 6.22450195 0.12577148 7.51757812 0.14648438 C9.60183509 0.18181076 11.68576402 0.23561736 13.76953125 0.29296875 C14.09953125 1.61296875 14.42953125 2.93296875 14.76953125 4.29296875 C14.43953125 3.63296875 14.10953125 2.97296875 13.76953125 2.29296875 C7.65145921 2.18013545 1.82802006 2.44265453 -4.23046875 3.29296875 C-5.22046875 3.29296875 -6.21046875 3.29296875 -7.23046875 3.29296875 C-4.91210376 0.51285471 -3.60077825 -0.0766123 0 0 Z " fill="#ABDB4E" transform="translate(150.23046875,147.70703125)"/>
<path d="M0 0 C5.94 1.485 5.94 1.485 12 3 C12.33 4.32 12.66 5.64 13 7 C10.36 6.67 7.72 6.34 5 6 C4.67 5.01 4.34 4.02 4 3 C2.35 2.67 0.7 2.34 -1 2 C-0.67 1.34 -0.34 0.68 0 0 Z " fill="#7B9F5D" transform="translate(127,127)"/>
<path d="M0 0 C0.33 0 0.66 0 1 0 C1.36571706 5.7295672 0.57237306 10.8023244 -2 16 C-2.99 16.66 -3.98 17.32 -5 18 C-5.33 17.34 -5.66 16.68 -6 16 C-5.28698713 14.01167955 -4.4798173 12.05660372 -3.625 10.125 C-1.44815472 5.1831927 -1.44815472 5.1831927 0 0 Z " fill="#ACDB4D" transform="translate(149,64)"/>
<path d="M0 0 C1.40907283 2.81814566 0.50872691 4.17277204 -0.4375 7.125 C-0.72496094 8.03507812 -1.01242188 8.94515625 -1.30859375 9.8828125 C-1.65083984 10.93082031 -1.65083984 10.93082031 -2 12 C-2.66 11.01 -3.32 10.02 -4 9 C-4.99 9.495 -4.99 9.495 -6 10 C-4.52307692 2.36923077 -4.52307692 2.36923077 -1.875 0.5 C-1.25625 0.335 -0.6375 0.17 0 0 Z M-3 4 C-2 6 -2 6 -2 6 Z " fill="#658746" transform="translate(146,96)"/>
<path d="M0 0 C0.99 0.33 1.98 0.66 3 1 C2.814375 1.721875 2.62875 2.44375 2.4375 3.1875 C1.98004693 6.12826973 2.26483643 8.14103058 3 11 C2.01 11.495 2.01 11.495 1 12 C-1 10 -1 10 -1.23046875 8.125 C-1.21628906 7.42375 -1.20210938 6.7225 -1.1875 6 C-1.18105469 5.29875 -1.17460938 4.5975 -1.16796875 3.875 C-1 2 -1 2 0 0 Z " fill="#B9EA5F" transform="translate(112,71)"/>
<path d="M0 0 C0.66 0.33 1.32 0.66 2 1 C1.67 1.66 1.34 2.32 1 3 C1.66 3.33 2.32 3.66 3 4 C1.87548273 6.9719385 0.77706209 9.33440687 -1 12 C-2.1875 8.8125 -2.1875 8.8125 -3 5 C-1.625 2.0625 -1.625 2.0625 0 0 Z " fill="#B9E757" transform="translate(83,101)"/>
<path d="M0 0 C1.74965358 -0.05429959 3.49979787 -0.09292823 5.25 -0.125 C6.22453125 -0.14820313 7.1990625 -0.17140625 8.203125 -0.1953125 C11.0196498 0.00137219 12.60949036 0.55431084 15 2 C15 2.33 15 2.66 15 3 C9.5814234 3.22577402 5.22512279 2.46670113 0 1 C0 0.67 0 0.34 0 0 Z " fill="#68785E" transform="translate(99,168)"/>
<path d="M0 0 C6.33393082 -0.34548714 11.10261508 0.70657253 17 3 C13.38801348 4.23314794 10.53960642 3.81852045 6.8125 3.1875 C5.21341797 2.93033203 5.21341797 2.93033203 3.58203125 2.66796875 C2.72996094 2.44753906 1.87789063 2.22710937 1 2 C0.67 1.34 0.34 0.68 0 0 Z " fill="#667061" transform="translate(123,131)"/>
<path d="M0 0 C0.33 0.66 0.66 1.32 1 2 C3.02463255 2.65213292 3.02463255 2.65213292 5 3 C5.33 2.34 5.66 1.68 6 1 C6 1.66 6 2.32 6 3 C6.66 3.33 7.32 3.66 8 4 C4.375 7 4.375 7 1 7 C0.67 4.69 0.34 2.38 0 0 Z " fill="#638643" transform="translate(119,122)"/>
<path d="M0 0 C2.10633718 1.70828921 2.93801608 2.52148416 3.29296875 5.26171875 C3.25816406 6.06222656 3.22335938 6.86273438 3.1875 7.6875 C3.16042969 8.49574219 3.13335937 9.30398437 3.10546875 10.13671875 C3.07066406 10.75160156 3.03585938 11.36648437 3 12 C2.34 12 1.68 12 1 12 C0.01751476 7.9472484 -0.08159574 4.16138263 0 0 Z " fill="#BDE952" transform="translate(95,119)"/>
<path d="M0 0 C0.66 0.33 1.32 0.66 2 1 C2 1.66 2 2.32 2 3 C1.34 3 0.68 3 0 3 C0 3.66 0 4.32 0 5 C-0.66 5 -1.32 5 -2 5 C-2 5.66 -2 6.32 -2 7 C-2.66 7 -3.32 7 -4 7 C-4.33 7.66 -4.66 8.32 -5 9 C-5.3125 6.75 -5.3125 6.75 -5 4 C-2.5 1.6875 -2.5 1.6875 0 0 Z " fill="#A3D14F" transform="translate(155,55)"/>
<path d="M0 0 C0.33 0.66 0.66 1.32 1 2 C0.33730939 3.66825159 -0.33005782 5.33464728 -1 7 C-1.2759478 8.92903132 -1.48449903 10.8689032 -1.625 12.8125 C-1.69976562 13.78832031 -1.77453125 14.76414062 -1.8515625 15.76953125 C-1.90054688 16.50558594 -1.94953125 17.24164063 -2 18 C-2.33 18 -2.66 18 -3 18 C-3.0809723 15.56183415 -3.14046972 13.12635616 -3.1875 10.6875 C-3.21263672 9.99720703 -3.23777344 9.30691406 -3.26367188 8.59570312 C-3.33834499 3.44325817 -3.33834499 3.44325817 -1.48828125 1.01953125 C-0.99714844 0.68308594 -0.50601563 0.34664063 0 0 Z " fill="#98C941" transform="translate(78,106)"/>
<path d="M0 0 C0.33 0.99 0.66 1.98 1 3 C-1.64 5.31 -4.28 7.62 -7 10 C-7 7 -7 7 -4.625 4.4375 C-3.75875 3.633125 -2.8925 2.82875 -2 2 C-1.34 1.34 -0.68 0.68 0 0 Z " fill="#B5C86D" transform="translate(160,159)"/>
<path d="M0 0 C0.66 0.33 1.32 0.66 2 1 C1.39816251 3.02045442 0.72693904 5.02111039 0 7 C-0.99 7.495 -0.99 7.495 -2 8 C-2.125 5.125 -2.125 5.125 -2 2 C-1.34 1.34 -0.68 0.68 0 0 Z " fill="#A6D548" transform="translate(80,102)"/>
<path d="M0 0 C1.74627478 2.61941217 2.38722388 4.03824877 3 7 C2.01 7 1.02 7 0 7 C-0.66 5.02 -1.32 3.04 -2 1 C-1.34 0.67 -0.68 0.34 0 0 Z " fill="#618247" transform="translate(88,151)"/>
<path d="M0 0 C0.66 0.33 1.32 0.66 2 1 C2 1.99 2 2.98 2 4 C-4.15234375 3.4140625 -4.15234375 3.4140625 -6 3 C-6.33 2.34 -6.66 1.68 -7 1 C-4.69 1.33 -2.38 1.66 0 2 C0 1.34 0 0.68 0 0 Z " fill="#73905B" transform="translate(138,130)"/>
<path d="M0 0 C0.33 0.99 0.66 1.98 1 3 C-0.40445835 5.2636564 -2.1967913 7.0208685 -4 9 C-4.33 8.01 -4.66 7.02 -5 6 C-3.59554165 3.7363436 -1.8032087 1.9791315 0 0 Z " fill="#91C23A" transform="translate(109,73)"/>
<path d="M0 0 C1.65 0 3.3 0 5 0 C5 1.65 5 3.3 5 5 C3.68 4.67 2.36 4.34 1 4 C0.67 2.68 0.34 1.36 0 0 Z " fill="#6C8E4F" transform="translate(109,165)"/>
<path d="M0 0 C0.93423645 3.01031744 1.04449911 3.86650268 0 7 C-0.66 7 -1.32 7 -2 7 C-2.33 5.35 -2.66 3.7 -3 2 C-2.01 1.34 -1.02 0.68 0 0 Z " fill="#93C539" transform="translate(109,96)"/>
</svg>
